<?xml version="1.0" encoding="UTF-8"?>
<svg xmlns="http://www.w3.org/2000/svg" xmlns:xlink="http://www.w3.org/1999/xlink" width="768" height="634" viewBox="0 0 768 634">

   <svg width="24" height="24" viewBox="0 0 24 24" focusable="false" class="TYVfy NMm5M" style="fill: rgba(0,0,0,0.54);">
      <path d="M4 4v2.01C5.83 3.58 8.73 2 12.01 2 17.53 2 22 6.48 22 12s-4.47 10-9.99 10C6.48 22 2 17.52 2 12h2c0 4.42 3.58 8 8 8s8-3.58 8-8-3.58-8-8-8C9.04 4 6.47 5.61 5.09 8H8v2H2V4h2z" />
      <path d="M13 12V6h-2v7l4.97 3.49 1.26-1.55z" />
   </svg>

   <svg version="1.1" id="Layer_1" x="24" y="0px" viewBox="0 0 512 512" width="24" height="24" style="           enable-background: new 0 0 512 512;            height: 16px;           width: 16px;            fill: rgba(0,0,0,0.54);" xml:space="preserve">
          <g>
            <path d="M72.837,213.333H320c11.782,0,21.333-9.551,21.333-21.333c0-11.782-9.551-21.333-21.333-21.333H72.837l48.915-48.915                  c8.331-8.331,8.331-21.839,0-30.17c-8.331-8.331-21.839-8.331-30.17,0L6.248,176.915c-0.497,0.497-0.967,1.02-1.413,1.564                      c-0.202,0.246-0.378,0.506-0.567,0.759c-0.228,0.304-0.463,0.601-0.675,0.918c-0.203,0.303-0.379,0.618-0.565,0.929                      c-0.171,0.286-0.351,0.566-0.509,0.861c-0.17,0.317-0.314,0.644-0.466,0.968c-0.145,0.307-0.298,0.609-0.429,0.924                      c-0.13,0.315-0.236,0.637-0.35,0.957c-0.121,0.337-0.25,0.669-0.354,1.013c-0.097,0.32-0.168,0.645-0.249,0.969                      c-0.089,0.351-0.187,0.698-0.258,1.056c-0.074,0.375-0.118,0.753-0.172,1.13c-0.044,0.311-0.104,0.618-0.135,0.933                      c-0.138,1.4-0.138,2.811,0,4.211c0.031,0.315,0.09,0.621,0.135,0.933c0.054,0.377,0.098,0.756,0.173,1.13                      c0.071,0.358,0.169,0.704,0.258,1.055c0.081,0.324,0.152,0.649,0.249,0.969c0.104,0.344,0.233,0.677,0.354,1.013                      c0.115,0.32,0.22,0.642,0.35,0.957c0.13,0.315,0.284,0.616,0.429,0.923c0.153,0.324,0.297,0.651,0.467,0.969                      c0.158,0.294,0.337,0.573,0.508,0.859c0.186,0.312,0.362,0.627,0.565,0.931c0.211,0.316,0.446,0.612,0.673,0.916                      c0.19,0.254,0.366,0.514,0.569,0.761c0.443,0.54,0.91,1.059,1.403,1.552c0.004,0.004,0.006,0.008,0.01,0.011l85.333,85.333                      c8.331,8.331,21.839,8.331,30.17,0c8.331-8.331,8.331-21.839,0-30.17L72.837,213.333z" />
            <path d="M507.164,333.522c0.204-0.248,0.38-0.509,0.571-0.764c0.226-0.302,0.461-0.598,0.671-0.913                    c0.204-0.304,0.38-0.62,0.566-0.932c0.17-0.285,0.349-0.564,0.506-0.857c0.17-0.318,0.315-0.646,0.468-0.971                    c0.145-0.306,0.297-0.607,0.428-0.921c0.13-0.315,0.236-0.637,0.35-0.957c0.121-0.337,0.25-0.669,0.354-1.013                    c0.097-0.32,0.168-0.646,0.249-0.969c0.089-0.351,0.187-0.698,0.258-1.055c0.074-0.375,0.118-0.753,0.173-1.13                    c0.044-0.311,0.104-0.617,0.135-0.933c0.138-1.4,0.138-2.811,0-4.211c-0.031-0.315-0.09-0.621-0.135-0.933                    c-0.054-0.377-0.098-0.756-0.173-1.13c-0.071-0.358-0.169-0.704-0.258-1.055c-0.081-0.324-0.152-0.649-0.249-0.969                    c-0.104-0.344-0.233-0.677-0.354-1.013c-0.115-0.32-0.22-0.642-0.35-0.957c-0.13-0.314-0.283-0.615-0.428-0.921                    c-0.153-0.325-0.297-0.653-0.468-0.971c-0.157-0.293-0.336-0.572-0.506-0.857c-0.186-0.312-0.363-0.628-0.566-0.932                    c-0.211-0.315-0.445-0.611-0.671-0.913c-0.191-0.255-0.368-0.516-0.571-0.764c-0.439-0.535-0.903-1.05-1.392-1.54                    c-0.007-0.008-0.014-0.016-0.021-0.023l-85.333-85.333c-8.331-8.331-21.839-8.331-30.17,0s-8.331,21.839,0,30.17l48.915,48.915                    H192c-11.782,0-21.333,9.551-21.333,21.333s9.551,21.333,21.333,21.333h247.163l-48.915,48.915                    c-8.331,8.331-8.331,21.839,0,30.17s21.839,8.331,30.17,0l85.333-85.333c0.008-0.008,0.014-0.016,0.021-0.023                    C506.261,334.572,506.725,334.057,507.164,333.522z" />
          </g>
    </svg>

   <svg focusable="false" viewBox="0 0 24 24" width="24" height="24" x="48" y="0px">
      <path d="M3 18h18v-2H3v2zm0-5h18v-2H3v2zm0-7v2h18V6H3z" />
   </svg>

   <svg class="gb_6e" focusable="false" viewBox="0 0 24 24" idth="24" height="24" x="72" y="0px">
      <path d="M6,8c1.1,0 2,-0.9 2,-2s-0.9,-2 -2,-2 -2,0.9 -2,2 0.9,2 2,2zM12,20c1.1,0 2,-0.9 2,-2s-0.9,-2 -2,-2 -2,0.9 -2,2 0.9,2 2,2zM6,20c1.1,0 2,-0.9 2,-2s-0.9,-2 -2,-2 -2,0.9 -2,2 0.9,2 2,2zM6,14c1.1,0 2,-0.9 2,-2s-0.9,-2 -2,-2 -2,0.9 -2,2 0.9,2 2,2zM12,14c1.1,0 2,-0.9 2,-2s-0.9,-2 -2,-2 -2,0.9 -2,2 0.9,2 2,2zM16,6c0,1.1 0.9,2 2,2s2,-0.9 2,-2 -0.9,-2 -2,-2 -2,0.9 -2,2zM12,8c1.1,0 2,-0.9 2,-2s-0.9,-2 -2,-2 -2,0.9 -2,2 0.9,2 2,2zM18,14c1.1,0 2,-0.9 2,-2s-0.9,-2 -2,-2 -2,0.9 -2,2 0.9,2 2,2zM18,20c1.1,0 2,-0.9 2,-2s-0.9,-2 -2,-2 -2,0.9 -2,2 0.9,2 2,2z" />
   </svg>

   <svg width="24" height="24" viewBox="0 0 24 24" focusable="false" style="fill: rgba(0,0,0,0.54);" x="96" y="0px">
      <path d="M12 17.27L18.18 21l-1.64-7.03L22 9.24l-7.19-.61L12 2 9.19 8.63 2 9.24l5.46 4.73L5.82 21 12 17.27z" />
   </svg>

   <svg width="24" height="24" x="120" y="0" viewBox="0 0 24 24" focusable="false" class="AeYb4d NMm5M" style="fill: rgba(0,0,0,0.54);">
      <path d="M12 14c1.66 0 3-1.34 3-3V5c0-1.66-1.34-3-3-3S9 3.34 9 5v6c0 1.66 1.34 3 3 3z" />
      <path d="M17 11c0 2.76-2.24 5-5 5s-5-2.24-5-5H5c0 3.53 2.61 6.43 6 6.92V21h2v-3.08c3.39-.49 6-3.39 6-6.92h-2z" />
   </svg>

  <svg xmlns="http://www.w3.org/2000/svg" x="152" y="0" width="32" height="32" viewBox="0 0 46 46" version="1.1"><title>stories</title><g stroke="none" stroke-width="1" fill="none" fill-rule="evenodd"><g><path d="M39.513 11.226h3.034c.751 0 1.36.608 1.36 1.36v23.666a2.04 2.04 0 0 1-2.04 2.04H27.49a.68.68 0 0 0-.68.68v.5a1.18 1.18 0 0 1-1.18 1.179h-5.351a1.18 1.18 0 0 1-1.18-1.18v-.5a.68.68 0 0 0-.68-.68H4.04A2.04 2.04 0 0 1 2 36.252V12.587c0-.752.609-1.36 1.36-1.36h2.705" stroke="#1CB0F6" stroke-width="2.27" fill="#1CB0F6" stroke-linejoin="round"/><path d="M37.92 32.838H27.388c-2.066 0-3.802 1.354-4.294 3.187h-.28c-.491-1.833-2.227-3.187-4.293-3.187H7.987a1.36 1.36 0 0 1-1.36-1.36V8.36c0-.751.608-1.36 1.36-1.36H18.52c2.449 0 4.434 1.903 4.434 4.25 0-2.347 1.985-4.25 4.433-4.25h10.534c.75 0 1.36.609 1.36 1.36v23.118a1.36 1.36 0 0 1-1.36 1.36z" stroke="#E8F7FF" stroke-width="2.27" fill="#E8F7FF" stroke-linecap="round" stroke-linejoin="round"/><path d="M22.954 9.648v27.194" stroke-opacity=".22" stroke="#1CB0F6" stroke-width="2.27" stroke-linecap="round"/><path stroke="#F34848" stroke-width="2" fill="#F34848" stroke-linejoin="round" d="M10.635 6h5.632v11.21l-2.773-2.402-2.859 2.402z"/></g></g></svg>
   
   
<svg xmlns="http://www.w3.org/2000/svg" x="287" y="0" width="135" height="124" viewBox="0 0 135 124"><defs><style>.cls-1{fill:#ffc800}.cls-2{fill:#ffd900}.cls-4{fill:#ffe75e}.cls-5{fill:#f89700}.cls-6{fill:#e27800}.cls-7{fill:#ffb100}</style></defs><g id="Cover"><rect class="cls-1" x="11" y="11" width="113" height="113" rx="17" ry="17"/><path class="cls-2" d="M107 11H62.42L11 62.42V107a16.88 16.88 0 0 0 .67 4.69l.15-.13 99.89-99.89A17.07 17.07 0 0 0 107 11z"/><path d="M93.35 67.7a25.6 25.6 0 0 1-25.51 25.69 25 25 0 0 1-7.43-1.11A25.72 25.72 0 0 1 67.84 42a25 25 0 0 1 5.57.63A25.71 25.71 0 0 1 93.35 67.7z" fill="#62361b"/><path class="cls-4" d="M121.38 66.43v2.25a4 4 0 0 1-4 4H99.52V62.43h17.87a4 4 0 0 1 3.99 4z"/><ellipse class="cls-4" cx="67.84" cy="67.71" rx="35.27" ry="35.53"/><ellipse class="cls-2" cx="67.84" cy="67.71" rx="30" ry="30.22"/><path class="cls-5" d="M93.35 67.7a25.6 25.6 0 0 1-25.51 25.69 25 25 0 0 1-7.43-1.11A25.72 25.72 0 0 1 67.84 42a25 25 0 0 1 5.57.63A25.71 25.71 0 0 1 93.35 67.7z"/><circle class="cls-5" cx="23.07" cy="22.8" r="22.77"/><rect class="cls-6" x="29.97" y="28.88" width="8.79" height="5.87" rx="2.94" ry="2.94" transform="rotate(-45 34.368 31.814)"/><rect class="cls-6" x="7.85" y="26.06" width="8.79" height="5.87" rx="2.94" ry="2.94"/><rect class="cls-6" x="4.17" y="6.36" width="8.79" height="5.87" rx="2.94" ry="2.94"/><rect class="cls-6" x="24.23" y="3.89" width="8.79" height="5.87" rx="2.94" ry="2.94" transform="rotate(-90 28.62 6.82)"/><rect class="cls-6" x="17" y="39.14" width="8.79" height="5.87" rx="2.94" ry="2.94" transform="rotate(-90 21.395 42.075)"/><rect class="cls-6" x="13.74" y="14.46" width="8.79" height="5.87" rx="2.94" ry="2.94" transform="rotate(123.71 18.136 17.393)"/><rect class="cls-6" x="32.36" y="15.29" width="8.79" height="5.87" rx="2.94" ry="2.94" transform="rotate(123.71 36.76 18.224)"/><rect class="cls-7" x="78.72" y="-1.22" width="19.42" height="29.77" rx="9.71" ry="9.71" transform="rotate(-45 88.424 13.674)"/><path class="cls-7" transform="rotate(-45 108.51 33.534)" d="M106.13 8.71h4.75v49.64h-4.75z"/><rect class="cls-7" x="124.88" y="48.86" width="8.94" height="11.45" rx="4.47" ry="4.47" transform="rotate(-45 129.349 54.582)"/><path class="cls-1" d="M95.86 23a2.09 2.09 0 0 1-1.74-3.25C96 17 93.87 14.1 93.78 14a2.11 2.11 0 0 1 .38-3 2.08 2.08 0 0 1 2.92.36c.17.22 4.09 5.32.53 10.67a2.08 2.08 0 0 1-1.75.97z"/><rect class="cls-4" x="21.39" y="99.52" width="18.7" height="12.16" rx="2.15" ry="2.15"/><rect class="cls-4" x="14.04" y="84.73" width="18.7" height="12.16" rx="2.15" ry="2.15" transform="rotate(-17.99 23.407 90.835)"/><path class="cls-5" d="M90.7 4.75a7.33 7.33 0 0 1 1.06 1.31A7.92 7.92 0 0 0 80.81 17a7.61 7.61 0 0 1-1.31-1.06A7.92 7.92 0 1 1 90.7 4.75z"/></g><g id="Instructions"><path class="cls-2" d="M80.42 124H107a17 17 0 0 0 17-17V80.42z"/></g></svg>

</svg>