<?xml version="1.0" encoding="UTF-8"?>
<svg xmlns="http://www.w3.org/2000/svg" xmlns:xlink="http://www.w3.org/1999/xlink" width="768" height="634" viewBox="0 0 768 634">

   <svg width="24" height="24" viewBox="0 0 24 24" focusable="false" class="TYVfy NMm5M" style="fill: rgba(0,0,0,0.54);">
      <path d="M4 4v2.01C5.83 3.58 8.73 2 12.01 2 17.53 2 22 6.48 22 12s-4.47 10-9.99 10C6.48 22 2 17.52 2 12h2c0 4.42 3.58 8 8 8s8-3.58 8-8-3.58-8-8-8C9.04 4 6.47 5.61 5.09 8H8v2H2V4h2z" />
      <path d="M13 12V6h-2v7l4.97 3.49 1.26-1.55z" />
   </svg>

   <svg version="1.1" id="Layer_1" x="24" y="0px" viewBox="0 0 512 512" width="24" height="24" style="           enable-background: new 0 0 512 512;            height: 16px;           width: 16px;            fill: rgba(0,0,0,0.54);" xml:space="preserve">
          <g>
            <path d="M72.837,213.333H320c11.782,0,21.333-9.551,21.333-21.333c0-11.782-9.551-21.333-21.333-21.333H72.837l48.915-48.915                  c8.331-8.331,8.331-21.839,0-30.17c-8.331-8.331-21.839-8.331-30.17,0L6.248,176.915c-0.497,0.497-0.967,1.02-1.413,1.564                      c-0.202,0.246-0.378,0.506-0.567,0.759c-0.228,0.304-0.463,0.601-0.675,0.918c-0.203,0.303-0.379,0.618-0.565,0.929                      c-0.171,0.286-0.351,0.566-0.509,0.861c-0.17,0.317-0.314,0.644-0.466,0.968c-0.145,0.307-0.298,0.609-0.429,0.924                      c-0.13,0.315-0.236,0.637-0.35,0.957c-0.121,0.337-0.25,0.669-0.354,1.013c-0.097,0.32-0.168,0.645-0.249,0.969                      c-0.089,0.351-0.187,0.698-0.258,1.056c-0.074,0.375-0.118,0.753-0.172,1.13c-0.044,0.311-0.104,0.618-0.135,0.933                      c-0.138,1.4-0.138,2.811,0,4.211c0.031,0.315,0.09,0.621,0.135,0.933c0.054,0.377,0.098,0.756,0.173,1.13                      c0.071,0.358,0.169,0.704,0.258,1.055c0.081,0.324,0.152,0.649,0.249,0.969c0.104,0.344,0.233,0.677,0.354,1.013                      c0.115,0.32,0.22,0.642,0.35,0.957c0.13,0.315,0.284,0.616,0.429,0.923c0.153,0.324,0.297,0.651,0.467,0.969                      c0.158,0.294,0.337,0.573,0.508,0.859c0.186,0.312,0.362,0.627,0.565,0.931c0.211,0.316,0.446,0.612,0.673,0.916                      c0.19,0.254,0.366,0.514,0.569,0.761c0.443,0.54,0.91,1.059,1.403,1.552c0.004,0.004,0.006,0.008,0.01,0.011l85.333,85.333                      c8.331,8.331,21.839,8.331,30.17,0c8.331-8.331,8.331-21.839,0-30.17L72.837,213.333z" />
            <path d="M507.164,333.522c0.204-0.248,0.38-0.509,0.571-0.764c0.226-0.302,0.461-0.598,0.671-0.913                    c0.204-0.304,0.38-0.62,0.566-0.932c0.17-0.285,0.349-0.564,0.506-0.857c0.17-0.318,0.315-0.646,0.468-0.971                    c0.145-0.306,0.297-0.607,0.428-0.921c0.13-0.315,0.236-0.637,0.35-0.957c0.121-0.337,0.25-0.669,0.354-1.013                    c0.097-0.32,0.168-0.646,0.249-0.969c0.089-0.351,0.187-0.698,0.258-1.055c0.074-0.375,0.118-0.753,0.173-1.13                    c0.044-0.311,0.104-0.617,0.135-0.933c0.138-1.4,0.138-2.811,0-4.211c-0.031-0.315-0.09-0.621-0.135-0.933                    c-0.054-0.377-0.098-0.756-0.173-1.13c-0.071-0.358-0.169-0.704-0.258-1.055c-0.081-0.324-0.152-0.649-0.249-0.969                    c-0.104-0.344-0.233-0.677-0.354-1.013c-0.115-0.32-0.22-0.642-0.35-0.957c-0.13-0.314-0.283-0.615-0.428-0.921                    c-0.153-0.325-0.297-0.653-0.468-0.971c-0.157-0.293-0.336-0.572-0.506-0.857c-0.186-0.312-0.363-0.628-0.566-0.932                    c-0.211-0.315-0.445-0.611-0.671-0.913c-0.191-0.255-0.368-0.516-0.571-0.764c-0.439-0.535-0.903-1.05-1.392-1.54                    c-0.007-0.008-0.014-0.016-0.021-0.023l-85.333-85.333c-8.331-8.331-21.839-8.331-30.17,0s-8.331,21.839,0,30.17l48.915,48.915                    H192c-11.782,0-21.333,9.551-21.333,21.333s9.551,21.333,21.333,21.333h247.163l-48.915,48.915                    c-8.331,8.331-8.331,21.839,0,30.17s21.839,8.331,30.17,0l85.333-85.333c0.008-0.008,0.014-0.016,0.021-0.023                    C506.261,334.572,506.725,334.057,507.164,333.522z" />
          </g>
    </svg>

   <svg focusable="false" viewBox="0 0 24 24" width="24" height="24" x="48" y="0px">
      <path d="M3 18h18v-2H3v2zm0-5h18v-2H3v2zm0-7v2h18V6H3z" />
   </svg>

   <svg class="gb_6e" focusable="false" viewBox="0 0 24 24" idth="24" height="24" x="72" y="0px">
      <path d="M6,8c1.1,0 2,-0.9 2,-2s-0.9,-2 -2,-2 -2,0.9 -2,2 0.9,2 2,2zM12,20c1.1,0 2,-0.9 2,-2s-0.9,-2 -2,-2 -2,0.9 -2,2 0.9,2 2,2zM6,20c1.1,0 2,-0.9 2,-2s-0.9,-2 -2,-2 -2,0.9 -2,2 0.9,2 2,2zM6,14c1.1,0 2,-0.9 2,-2s-0.9,-2 -2,-2 -2,0.9 -2,2 0.9,2 2,2zM12,14c1.1,0 2,-0.9 2,-2s-0.9,-2 -2,-2 -2,0.9 -2,2 0.9,2 2,2zM16,6c0,1.1 0.9,2 2,2s2,-0.9 2,-2 -0.9,-2 -2,-2 -2,0.9 -2,2zM12,8c1.1,0 2,-0.9 2,-2s-0.9,-2 -2,-2 -2,0.9 -2,2 0.9,2 2,2zM18,14c1.1,0 2,-0.9 2,-2s-0.9,-2 -2,-2 -2,0.9 -2,2 0.9,2 2,2zM18,20c1.1,0 2,-0.9 2,-2s-0.9,-2 -2,-2 -2,0.9 -2,2 0.9,2 2,2z" />
   </svg>

   <svg width="24" height="24" viewBox="0 0 24 24" focusable="false" style="fill: rgba(0,0,0,0.54);" x="96" y="0px">
      <path d="M12 17.27L18.18 21l-1.64-7.03L22 9.24l-7.19-.61L12 2 9.19 8.63 2 9.24l5.46 4.73L5.82 21 12 17.27z" />
   </svg>

   <svg width="24" height="24" x="120" y="0" viewBox="0 0 24 24" focusable="false" class="AeYb4d NMm5M" style="fill: rgba(0,0,0,0.54);">
      <path d="M12 14c1.66 0 3-1.34 3-3V5c0-1.66-1.34-3-3-3S9 3.34 9 5v6c0 1.66 1.34 3 3 3z" />
      <path d="M17 11c0 2.76-2.24 5-5 5s-5-2.24-5-5H5c0 3.53 2.61 6.43 6 6.92V21h2v-3.08c3.39-.49 6-3.39 6-6.92h-2z" />
   </svg>
   
</svg>